<?xml version="1.0" encoding="utf-8"?>
<!-- Generator: Adobe Illustrator 16.0.0, SVG Export Plug-In . SVG Version: 6.00 Build 0)  -->
<!DOCTYPE svg PUBLIC "-//W3C//DTD SVG 1.1//EN" "http://www.w3.org/Graphics/SVG/1.1/DTD/svg11.dtd">
<svg version="1.1" id="Слой_1" xmlns="http://www.w3.org/2000/svg" xmlns:xlink="http://www.w3.org/1999/xlink" x="0px" y="0px"
	 width="19px" height="18px" viewBox="0 0 19 18" enable-background="new 0 0 19 18" xml:space="preserve">
<g>
	<path fill="#D6D6D6" d="M14.8789063,13.4492188c-2.4921875-0.8994141-3.2910156-1.6582031-3.2910156-3.2802734
		c0-0.9760742,0.7617188-0.6567383,1.0966797-2.4394531c0.1367188-0.7407227,0.8105469-0.0126953,0.9394531-1.7026367
		c0-0.6733398-0.3652344-0.8408203-0.3652344-0.8408203s0.1835938-0.9951172,0.2578125-1.7626953
		C13.6064453,2.4692383,12.9580078,0,9.5019531,0C6.0419922,0,5.3935547,2.4692383,5.4833984,3.4233398
		C5.5556641,4.190918,5.7431641,5.1860352,5.7431641,5.1860352S5.3769531,5.3535156,5.3769531,6.0268555
		c0.1279297,1.6899414,0.7998047,0.9619141,0.9384766,1.7026367c0.3349609,1.7827148,1.0947266,1.4633789,1.0947266,2.4394531
		c0,1.6220703-0.796875,2.3808594-3.2861328,3.2802734C1.6240234,14.3496094,0,15.2675781,0,15.8945313V18h19v-2.1054688
		C19,15.2675781,17.3759766,14.3496094,14.8789063,13.4492188L14.8789063,13.4492188z M14.8789063,13.4492188"/>
</g>
</svg>
