<?xml version="1.0" encoding="utf-8"?>
<!-- Generator: Adobe Illustrator 16.0.0, SVG Export Plug-In . SVG Version: 6.00 Build 0)  -->
<!DOCTYPE svg PUBLIC "-//W3C//DTD SVG 1.1//EN" "http://www.w3.org/Graphics/SVG/1.1/DTD/svg11.dtd">
<svg version="1.1" id="Слой_1" xmlns="http://www.w3.org/2000/svg" xmlns:xlink="http://www.w3.org/1999/xlink" x="0px" y="0px"
	 width="63px" height="63px" viewBox="0 0 63 63" enable-background="new 0 0 63 63" xml:space="preserve">
<g>
	<circle fill="none" stroke="#00E2BC" stroke-miterlimit="10" cx="31.4707031" cy="31.7890625" r="30.5"/>
	<g>
		<path fill="#00E2BC" d="M37.4746094,18.1191406l0.7929688-1.3320313c0.1796875-0.3232422,0.5761719-0.4331055,0.8984375-0.2529297
			c0.3232422,0.1796875,0.4335938,0.5751953,0.2539063,0.8984375l-0.7929688,1.3320313
			c-0.1064453,0.2172852-0.359375,0.3232422-0.5761719,0.3232422c-0.1064453,0-0.2167969-0.0361328-0.3232422-0.0727539
			C37.4013672,18.8388672,37.2949219,18.4453125,37.4746094,18.1191406L37.4746094,18.1191406z M25.8212891,18.7685547
			c0.1064453,0.2158203,0.359375,0.3232422,0.5761719,0.3232422c0.1064453,0,0.2158203-0.0371094,0.3222656-0.0732422
			c0.3232422-0.1796875,0.4326172-0.5761719,0.2539063-0.8994141l-0.7929688-1.3320313
			c-0.1796875-0.3232422-0.5761719-0.4331055-0.8994141-0.2529297c-0.3232422,0.1796875-0.4326172,0.5751953-0.2529297,0.8984375
			L25.8212891,18.7685547z M32.2226563,17.5463867c0.359375,0,0.6464844-0.2861328,0.6464844-0.6464844v-1.5454102
			c0-0.359375-0.2871094-0.6464844-0.6464844-0.6464844c-0.3603516,0-0.6464844,0.2871094-0.6464844,0.6464844v1.5454102
			C31.5390625,17.2563477,31.8261719,17.5463867,32.2226563,17.5463867L32.2226563,17.5463867z M20.5683594,27.8671875h-1.5449219
			c-0.3603516,0-0.6464844,0.2871094-0.6464844,0.6464844c0,0.3603516,0.2861328,0.6464844,0.6464844,0.6464844h1.5449219
			c0.359375,0,0.6464844-0.2861328,0.6464844-0.6464844C21.2148438,28.1542969,20.9277344,27.8671875,20.5683594,27.8671875
			L20.5683594,27.8671875z M45.4248047,27.8671875h-1.5458984c-0.359375,0-0.6464844,0.2871094-0.6464844,0.6464844
			c0,0.3603516,0.2871094,0.6464844,0.6464844,0.6464844h1.5458984c0.359375,0,0.6455078-0.2861328,0.6455078-0.6464844
			C46.0703125,28.1542969,45.7841797,27.8671875,45.4248047,27.8671875L45.4248047,27.8671875z M44.2363281,21.609375
			c-0.1806641-0.3232422-0.5771484-0.4326172-0.9003906-0.2529297l-1.3320313,0.7929688
			c-0.3222656,0.1796875-0.4326172,0.5761719-0.2529297,0.8989258c0.1064453,0.2163086,0.359375,0.3237305,0.5761719,0.3237305
			c0.1064453,0,0.2167969-0.0371094,0.3232422-0.0742188l1.3320313-0.7919922
			C44.3085938,22.3291016,44.4160156,21.9316406,44.2363281,21.609375L44.2363281,21.609375z M40.7119141,28.4438477
			c0,1.4750977-0.3964844,2.9140625-1.1162109,4.2104492c-0.0361328,0.1064453-0.0732422,0.1796875-0.1425781,0.2529297
			l-0.0732422,0.1064453c-0.2861328,0.4326172-0.5771484,0.8623047-0.9365234,1.2216797
			c-1.2587891,1.7626953-1.9042969,3.2744141-1.8710938,4.2441406v0.0361328c0,0.0722656,0.0361328,0.1796875,0.0361328,0.2861328
			v3.0947266c0,1.3642578-1.1162109,2.4443359-2.4443359,2.4443359h-3.9902344
			c-1.3652344,0-2.4443359-1.1162109-2.4443359-2.4443359v-3.4169922c0.0361328-0.9365234-0.6132813-2.4121094-1.7988281-4.1376953
			c-0.3964844-0.4326172-0.7919922-0.8984375-1.0791016-1.4384766c-0.0371094-0.0732422-0.0732422-0.1064453-0.1064453-0.1806641
			c-0.7558594-1.2939453-1.1523438-2.7700195-1.1523438-4.2421875c0-4.7128906,3.8505859-8.5595703,8.5595703-8.5595703
			C36.8613281,19.8842773,40.7119141,23.7314453,40.7119141,28.4438477L40.7119141,28.4438477z M35.2792969,39.1621094h-6.2207031
			v1.2216797h6.2207031V39.1621094z M35.2792969,41.96875v-0.2519531h-6.2207031V41.96875
			c0.0722656,0.5761719,0.5390625,1.0058594,1.1152344,1.0058594h3.9941406
			C34.7402344,42.9746094,35.2089844,42.5449219,35.2792969,41.96875L35.2792969,41.96875z M39.3798828,28.4438477
			c0-3.9926758-3.2373047-7.2299805-7.2314453-7.2299805c-3.9931641,0-7.2304688,3.2373047-7.2304688,7.2299805
			c0,1.2963867,0.359375,2.5551758,1.0058594,3.6704102v0.0361328c0.2871094,0.4667969,0.6132813,0.8994141,0.9726563,1.2958984
			l0.0732422,0.0732422c1.1855469,1.6923828,1.8720703,3.1298828,2.0517578,4.3164063h6.2949219
			c0.2167969-1.4755859,1.2226563-3.1640625,2.1210938-4.4228516c0-0.0371094,0.0371094-0.0371094,0.0732422-0.0732422
			c0.3232422-0.3232422,0.6132813-0.71875,0.8261719-1.1152344c0-0.0371094,0.0371094-0.0371094,0.0371094-0.0742188
			s0.0361328-0.0361328,0.0361328-0.0732422C39.0566406,30.9990234,39.3798828,29.7402344,39.3798828,28.4438477
			L39.3798828,28.4438477z M22.4404297,22.1494141l-1.3320313-0.7929688
			c-0.3232422-0.1796875-0.7197266-0.0737305-0.8994141,0.2529297c-0.1796875,0.3222656-0.0732422,0.7197266,0.2529297,0.8989258
			l1.3330078,0.7929688C21.9003906,23.375,22.0107422,23.375,22.1171875,23.375
			c0.2167969,0,0.4667969-0.1074219,0.5761719-0.3232422C22.8701172,22.7255859,22.7636719,22.3291016,22.4404297,22.1494141
			L22.4404297,22.1494141z M22.4404297,22.1494141"/>
	</g>
</g>
<g>
</g>
<g>
</g>
<g>
</g>
<g>
</g>
<g>
</g>
<g>
</g>
</svg>
