<?xml version="1.0" encoding="utf-8"?>
<!-- Generator: Adobe Illustrator 16.0.0, SVG Export Plug-In . SVG Version: 6.00 Build 0)  -->
<!DOCTYPE svg PUBLIC "-//W3C//DTD SVG 1.1//EN" "http://www.w3.org/Graphics/SVG/1.1/DTD/svg11.dtd">
<svg version="1.1" id="Слой_1" xmlns="http://www.w3.org/2000/svg" xmlns:xlink="http://www.w3.org/1999/xlink" x="0px" y="0px"
	 width="23.9804688px" height="23.9804688px" viewBox="0 0 23.9804688 23.9804688"
	 enable-background="new 0 0 23.9804688 23.9804688" xml:space="preserve">
<g>
	<path fill="#FFFFFF" d="M11.9960938,23.9765625c-4.8496094,0-9.1914063-2.8896484-11.0625-7.3652344
		c-1.234375-2.9541016-1.2441406-6.2094727-0.0273438-9.1708984c1.2148438-2.9584961,3.5097656-5.2729492,6.4628906-6.5039063
		c1.4765625-0.6171875,3.0273438-0.9321289,4.6152344-0.9321289c4.8505859,0,9.1894531,2.8920898,11.0625,7.3686523
		c1.234375,2.9536133,1.2451172,6.2080078,0.0292969,9.1689453c-1.2158203,2.9638672-3.5107422,5.2724609-6.4648438,6.5068359
		C15.1347656,23.6650391,13.5839844,23.9765625,11.9960938,23.9765625 M11.984375,1.8466797
		c-1.3398438,0-2.6552734,0.2670898-3.9023438,0.7890625c-2.5,1.0444336-4.4433594,3.0029297-5.4707031,5.5053711
		c-1.0302734,2.5078125-1.0214844,5.2631836,0.0234375,7.7602539c1.5820313,3.7871094,5.2558594,6.2353516,9.3613281,6.2353516
		c1.3417969,0,2.65625-0.2685547,3.9042969-0.7900391c2.4990234-1.0429688,4.4414063-2.9970703,5.4707031-5.5039063
		c1.0292969-2.5058594,1.0205078-5.2636719-0.0244141-7.7636719C19.7636719,4.2939453,16.0917969,1.8466797,11.984375,1.8466797"/>
	<path fill="#FFFFFF" d="M7.8808594,1.9433594C7.8574219,7.0004883,5.875,18.2617188,13.5566406,18.4824219
		c2.7441406,0.0800781,4.4462891-2.3525391,4.3476563-4.8642578c-0.1826172-4.6523438-7.2802734-6.1987305-9.0351563-10.1938477
		C8.6992188,3.043457,7.8203125,3.4433594,7.9648438,3.769043c1.1914063,2.7163086,3.2988281,4.0649414,5.6201172,5.7353516
		c1.3564453,0.9750977,2.4746094,2.1767578,3.0146484,3.7827148c1.0878906,3.2451172-2.7304688,5.7304688-5.3945313,3.5498047
		C7.4003906,13.7226563,9.0488281,5.8325195,9.0683594,1.628418C9.0683594,1.3051758,7.8808594,1.5131836,7.8808594,1.9433594"/>
</g>
</svg>
