<?xml version="1.0" encoding="utf-8"?>
<!-- Generator: Adobe Illustrator 16.0.0, SVG Export Plug-In . SVG Version: 6.00 Build 0)  -->
<!DOCTYPE svg PUBLIC "-//W3C//DTD SVG 1.1//EN" "http://www.w3.org/Graphics/SVG/1.1/DTD/svg11.dtd">
<svg version="1.1" id="Слой_1" xmlns="http://www.w3.org/2000/svg" xmlns:xlink="http://www.w3.org/1999/xlink" x="0px" y="0px"
	 width="166px" height="24px" viewBox="0 0 166 24" enable-background="new 0 0 166 24" xml:space="preserve">
<g>
	<g>
		<path fill="#333" d="M12.0053711,24c-4.8535156,0-9.1987305-2.8935547-11.0712891-7.3740234
			c-1.2353516-2.9580078-1.2451172-6.2167969-0.0273438-9.1816406c1.2158203-2.9619141,3.5126953-5.2788086,6.4677734-6.5112305
			C8.8525391,0.3154297,10.4042969,0,11.9936523,0c4.8540039,0,9.1962891,2.8955078,11.0708008,7.3769531
			c1.2353516,2.9570313,1.2460938,6.2148438,0.0292969,9.1787109c-1.2167969,2.96875-3.5131836,5.2792969-6.4697266,6.5146484
			C15.1464844,23.6875,13.5942383,24,12.0053711,24 M11.9936523,1.8442383c-1.3408203,0-2.6572266,0.2675781-3.9052734,0.7900391
			C5.5864258,3.6801758,3.6416016,5.640625,2.6132813,8.1459961c-1.03125,2.5107422-1.0224609,5.2700195,0.0234375,7.769043
			c1.5830078,3.7910156,5.2597656,6.2421875,9.3686523,6.2421875c1.3427734,0,2.6582031-0.2685547,3.9072266-0.7910156
			c2.5009766-1.0439453,4.4448242-3.0009766,5.4750977-5.5107422c1.0297852-2.5078125,1.0209961-5.2685547-0.0244141-7.7714844
			C19.7788086,4.2944336,16.1040039,1.8442383,11.9936523,1.8442383"/>
		<path fill="#333" d="M7.8867188,1.9414063c-0.0234375,5.0625-2.0073242,16.3359375,5.6801758,16.5576172
			c2.746582,0.0800781,4.449707-2.3554688,4.3510742-4.8701172c-0.1826172-4.6572266-7.2856445-6.2055664-9.0419922-10.2050781
			C8.7060547,3.0424805,7.8261719,3.4428711,7.9707031,3.769043c1.1923828,2.7192383,3.3017578,4.0693359,5.6245117,5.7416992
			c1.3574219,0.9760742,2.4765625,2.1791992,3.0170898,3.7871094c1.0888672,3.2480469-2.7324219,5.7363281-5.3984375,3.5537109
			C7.40625,13.734375,9.0556641,5.8349609,9.0751953,1.6259766C9.0751953,1.3022461,7.8867188,1.5107422,7.8867188,1.9414063"/>
	</g>
	<g>
		<path fill="#333" d="M45.9316406,18.1123047l-3.8037109-5.1005859h-3.7475586v5.1005859h-1.4804688V4.9853516h5.6401367
			c2.8857422,0,4.7407227,1.5561523,4.7407227,3.9194336c0,2.1938477-1.4990234,3.4692383-3.5600586,3.8442383l4.0283203,5.3632813
			H45.9316406z M42.4277344,6.3540039h-4.0473633v5.3261719h4.0283203c1.9677734,0,3.3730469-1.0126953,3.3730469-2.7192383
			C45.7817383,7.3291016,44.5449219,6.3540039,42.4277344,6.3540039z"/>
		<path fill="#333" d="M56.5405273,18.3369141c-3.9912109,0-6.6704102-3.1308594-6.6704102-6.7695313
			c0-3.6381836,2.7167969-6.8071289,6.7080078-6.8071289s6.6704102,3.1318359,6.6704102,6.7695313
			C63.2485352,15.1679688,60.5317383,18.3369141,56.5405273,18.3369141z M56.5405273,6.1289063
			c-2.9980469,0-5.1342773,2.4003906-5.1342773,5.4008789s2.1738281,5.4389648,5.171875,5.4389648
			s5.1337891-2.4003906,5.1337891-5.4013672C61.7119141,8.5668945,59.5385742,6.1289063,56.5405273,6.1289063z"/>
		<path fill="#333" d="M72.378418,18.3369141c-3.7851563,0-6.5766602-2.9814453-6.5766602-6.7695313
			c0-3.7504883,2.7729492-6.8071289,6.6328125-6.8071289c2.3798828,0,3.8037109,0.84375,5.1157227,2.081543l-1.012207,1.0874023
			c-1.1054688-1.0498047-2.3417969-1.800293-4.1220703-1.800293c-2.9042969,0-5.078125,2.3442383-5.078125,5.4008789
			c0,3.0571289,2.1923828,5.4389648,5.078125,5.4389648c1.7988281,0,2.9794922-0.6943359,4.2348633-1.8945313L77.625,16.0302734
			C76.2573242,17.4179688,74.7583008,18.3369141,72.378418,18.3369141z"/>
		<path fill="#333" d="M91.3818359,18.1123047h-1.8544922l-5.0410156-6.3574219l-2.7915039,2.8320313v3.5253906h-1.4804688
			V4.9853516h1.4804688v7.8383789l7.5327148-7.8383789h1.9111328l-5.6210938,5.7382813L91.3818359,18.1123047z"/>
		<path fill="#333" d="M98.2431641,18.1123047h-4.5527344V4.9853516h4.5527344
			c4.1220703,0,6.9707031,2.831543,6.9707031,6.5444336C105.2138672,15.2431641,102.3652344,18.1123047,98.2431641,18.1123047z
			 M98.2431641,6.3540039h-3.0732422v10.3891602h3.0732422c3.3164063,0,5.4345703-2.25,5.4345703-5.1757813
			C103.6777344,8.6420898,101.5595703,6.3540039,98.2431641,6.3540039z"/>
		<path fill="#333" d="M117.828125,6.3354492h-8.0009766v4.4819336h7.1582031v1.3500977h-7.1582031v4.5942383h8.0947266
			v1.3505859h-9.5742188V4.9853516h9.4804688V6.3354492z"/>
		<path fill="#333" d="M125.6083984,10.8359375c2.9228516,0.6376953,4.2714844,1.706543,4.2714844,3.7324219
			c0,2.2685547-1.8730469,3.7314453-4.4775391,3.7314453c-2.0800781,0-3.7851563-0.6933594-5.359375-2.1005859l0.9179688-1.0878906
			c1.3681641,1.2382813,2.6796875,1.8574219,4.4970703,1.8574219c1.7617188,0,2.9228516-0.9189453,2.9228516-2.2509766
			c0-1.2373047-0.6552734-1.9311523-3.4101563-2.5126953c-3.0166016-0.65625-4.4033203-1.6313477-4.4033203-3.8066406
			c0-2.1005859,1.8173828-3.6005859,4.3095703-3.6005859c1.9111328,0,3.2792969,0.543457,4.609375,1.6123047L128.625,7.5541992
			c-1.2177734-0.9936523-2.4365234-1.425293-3.7851563-1.425293c-1.7050781,0-2.7919922,0.9379883-2.7919922,2.1381836
			C122.0478516,9.5234375,122.7226563,10.2172852,125.6083984,10.8359375z"/>
		<path fill="#333" d="M134.5126953,4.9853516v13.1269531h-1.4804688V4.9853516H134.5126953z"/>
		<path fill="#333" d="M144.4433594,18.3369141c-4.1220703,0-6.6699219-3-6.6699219-6.7695313
			c0-3.6191406,2.6416016-6.8071289,6.5771484-6.8071289c2.2109375,0,3.578125,0.6376953,4.8896484,1.7441406l-0.9550781,1.125
			c-1.0117188-0.8813477-2.1357422-1.5004883-3.9912109-1.5004883c-2.9042969,0-4.984375,2.4570313-4.984375,5.4008789
			c0,3.1508789,2.0048828,5.4760742,5.1904297,5.4760742c1.4990234,0,2.8857422-0.5810547,3.7851563-1.3125v-3.2631836h-3.9912109
			v-1.331543h5.4150391v5.2324219C148.4912109,17.4179688,146.6552734,18.3369141,144.4433594,18.3369141z"/>
		<path fill="#333" d="M162.6982422,4.9853516h1.4433594v13.1269531h-1.1806641l-8.4697266-10.7641602v10.7641602h-1.4423828
			V4.9853516h1.3857422l8.2636719,10.5205078V4.9853516z"/>
	</g>
</g>
<g>
</g>
<g>
</g>
<g>
</g>
<g>
</g>
<g>
</g>
<g>
</g>
</svg>
